Coordinates
version=1
nRows=22
nColumns=33
inDegrees=yes

Units are S.I. units (second, meters, Newtons, ...)
Angles are in degrees.

endheader
time	ground_thorax_rot_x	ground_thorax_rot_y	ground_thorax_rot_z	ground_thorax_tx	ground_thorax_ty	ground_thorax_tz	clav_prot_r	clav_elev_r	scapula_abduction_r	scapula_elevation_r	scapula_upward_rot_r	scapula_winging_r	shoulder_elv_r	plane_of_elev_r	axial_rot_r	elbow_flexion_r	pro_sup_r	wrist_flex_r	wrist_dev_r	clav_prot_l	clav_elev_l	scapula_abduction_l	scapula_elevation_l	scapula_upward_rot_l	scapula_winging_l	shoulder_elv_l	plane_of_elev_l	axial_rot_l	elbow_flexion_l	pro_sup_l	wrist_flex_l	wrist_dev_l	
8.8700	31.351839	25.319887	34.787251	-82.575470	840.881261	-45.831123	13.001344	34.308390	27.225497	45.000000	-45.000000	-2249.384454	-4246.536056	21.585024	-160.630938	-0.838124	157.904718	13.655180	14.680472	-6.937016	-45.000000	-39.735603	45.000000	-45.000000	-1334.326876	798.946064	25.066021	25.465397	1789.776405	398.811223	14.206570	-18.685130	
8.8800	31.381898	25.226936	34.682958	-83.269958	842.514313	-45.842522	13.000783	34.286897	27.302738	45.000000	-45.000000	-2249.453363	-4246.544614	21.629494	-160.893045	-0.911529	157.653002	13.709949	14.682407	-6.828761	-45.000000	-39.822533	45.000000	-45.000000	-1334.270149	798.985482	25.112799	25.665236	1789.769806	398.511366	14.262560	-18.782691	
8.8900	31.410732	25.139348	34.586915	-83.888233	844.097720	-45.839985	12.998569	34.265783	27.380858	45.000000	-45.000000	-2249.519025	-4246.556557	21.674154	-161.163388	-0.981598	157.460005	13.785064	14.686690	-6.722918	-45.000000	-39.903255	45.000000	-45.000000	-1334.215023	799.017998	25.163981	25.880906	1789.768924	398.265060	14.313204	-18.901284	
8.9000	31.434917	25.060890	34.501663	-84.431372	845.622947	-45.823536	12.993814	34.240792	27.447198	45.000000	-45.000000	-2249.576757	-4246.567227	21.719189	-161.439318	-1.050269	157.320568	13.878725	14.695281	-6.614213	-45.000000	-39.980695	45.000000	-45.000000	-1334.160297	799.044867	25.220969	26.108483	1789.770532	398.076556	14.357262	-19.038919	
8.9100	31.456805	24.989619	34.425013	-84.901710	847.081243	-45.792382	12.988046	34.214869	27.505323	45.000000	-45.000000	-2249.629508	-4246.579039	21.766361	-161.718837	-1.117252	157.227878	13.989400	14.709097	-6.507436	-45.000000	-40.051076	45.000000	-45.000000	-1334.107830	799.064917	25.284996	26.348623	1789.775583	397.948207	14.394716	-19.200176	
8.9200	31.473298	24.928081	34.359456	-85.302425	848.463588	-45.745218	12.979764	34.185565	27.546447	45.000000	-45.000000	-2249.673330	-4246.589470	21.814839	-162.000019	-1.183355	157.175201	14.112281	14.727015	-6.398705	-45.000000	-40.118005	45.000000	-45.000000	-1334.056730	799.078334	25.355646	26.599033	1789.782151	397.882457	14.423108	-19.381013	
8.9300	31.492759	24.868121	34.291504	-85.637153	849.760830	-45.680975	12.970293	34.156315	27.582130	45.000000	-45.000000	-2249.715938	-4246.605770	21.867425	-162.278376	-1.250392	157.156258	14.247504	14.751557	-6.290044	-45.000000	-40.173352	45.000000	-45.000000	-1334.007813	799.080666	25.443084	26.862222	1789.787614	397.878966	14.448854	-19.594077	
8.9400	31.504232	24.820217	34.238355	-85.910015	850.963249	-45.599593	12.960116	34.124765	27.596699	45.000000	-45.000000	-2249.747005	-4246.618411	21.920913	-162.554402	-1.316838	157.166674	14.384663	14.774968	-6.188083	-45.000000	-40.225007	45.000000	-45.000000	-1333.965374	799.078091	25.527710	27.126998	1789.797094	397.939309	14.457930	-19.816421	
8.9500	31.513483	24.777182	34.189189	-86.125959	852.060665	-45.502781	12.946573	34.096150	27.610622	45.000000	-45.000000	-2249.774450	-4246.641344	21.972457	-162.824935	-1.378069	157.202233	14.527138	14.798000	-6.090760	-45.000000	-40.279680	45.000000	-45.000000	-1333.921397	799.059710	25.617042	27.396531	1789.810325	398.059833	14.459921	-20.068497	
8.9600	31.503559	24.757276	34.172549	-86.291182	853.042383	-45.394402	12.934284	34.068254	27.593526	45.000000	-45.000000	-2249.782871	-4246.652448	22.021688	-163.092134	-1.434440	157.261920	14.659587	14.809996	-6.013009	-45.000000	-40.328620	45.000000	-45.000000	-1333.892476	799.048120	25.681511	27.649432	1789.834633	398.241683	14.426828	-20.300464	
8.9700	31.489252	24.744032	34.164627	-86.413310	853.897879	-45.280516	12.918085	34.046020	27.573717	45.000000	-45.000000	-2249.787678	-4246.670155	22.069442	-163.352847	-1.485976	157.343699	14.794128	14.817664	-5.946595	-45.000000	-40.365901	45.000000	-45.000000	-1333.862837	799.027180	25.746121	27.887180	1789.865116	398.479629	14.383156	-20.550836	
8.9800	31.461892	24.747725	34.182408	-86.500865	854.616905	-45.169010	12.899509	34.024379	27.538090	45.000000	-45.000000	-2249.775755	-4246.679679	22.109479	-163.607731	-1.532198	157.446845	14.918927	14.814428	-5.909495	-45.000000	-40.388244	45.000000	-45.000000	-1333.849183	799.009303	25.780360	28.089204	1789.912795	398.768342	14.307882	-20.780197	
8.9900	31.436709	24.750485	34.196365	-86.562845	855.192122	-45.068464	12.871423	34.009899	27.518966	45.000000	-45.000000	-2249.766445	-4246.707228	22.141738	-163.853700	-1.572752	157.566659	15.052070	14.809299	-5.884159	-45.000000	-40.402167	45.000000	-45.000000	-1333.827090	798.972461	25.819083	28.263407	1789.964501	399.095999	14.234750	-21.038649	
9.0000	31.404486	24.764898	34.221215	-86.606420	855.616062	-44.987867	12.841439	33.997689	27.492188	45.000000	-45.000000	-2249.747790	-4246.730298	22.168369	-164.083283	-1.611845	157.696616	15.175631	14.798727	-5.881334	-45.000000	-40.395875	45.000000	-45.000000	-1333.818135	798.938695	25.839631	28.391736	1790.022855	399.442293	14.144158	-21.269132	
9.0100	31.381237	24.772970	34.227663	-86.639058	855.893431	-44.932993	12.800606	33.984289	27.480501	45.000000	-45.000000	-2249.730385	-4246.767395	22.187397	-164.300848	-1.652938	157.835683	15.307402	14.792002	-5.881576	-45.000000	-40.377313	45.000000	-45.000000	-1333.804840	798.885768	25.866777	28.484025	1790.084899	399.803210	14.053006	-21.517261	
9.0200	31.354674	24.791291	34.237268	-86.664571	856.028945	-44.908182	12.757847	33.968029	27.461418	45.000000	-45.000000	-2249.702610	-4246.801126	22.199800	-164.504406	-1.692304	157.988890	15.427242	14.784106	-5.895283	-45.000000	-40.351194	45.000000	-45.000000	-1333.800788	798.830630	25.873385	28.532110	1790.160778	400.182706	13.944140	-21.736109	
9.0300	31.327549	24.814614	34.244451	-86.685487	856.035956	-44.913947	12.710276	33.949381	27.438102	45.000000	-45.000000	-2249.669110	-4246.839214	22.206959	-164.703432	-1.729340	158.159874	15.555242	14.770762	-5.906955	-45.000000	-40.317931	45.000000	-45.000000	-1333.791460	798.770976	25.877272	28.545970	1790.240757	400.589401	13.819318	-21.956867	
9.0400	31.293059	24.853470	34.262916	-86.700276	855.924091	-44.949567	12.671546	33.935097	27.394567	45.000000	-45.000000	-2249.631228	-4246.868895	22.218803	-164.887788	-1.763727	158.352762	15.666294	14.754579	-5.926856	-45.000000	-40.273721	45.000000	-45.000000	-1333.784377	798.722408	25.868504	28.527030	1790.328201	401.018737	13.685374	-22.140118	
9.0500	31.260254	24.895921	34.282985	-86.708218	855.713683	-45.010265	12.634376	33.914108	27.338481	45.000000	-45.000000	-2249.583165	-4246.894153	22.228636	-165.069407	-1.796265	158.564374	15.793082	14.722732	-5.942062	-45.000000	-40.206277	45.000000	-45.000000	-1333.777968	798.684508	25.859355	28.482725	1790.414984	401.466426	13.527649	-22.316573	
9.0600	31.230606	24.946067	34.303516	-86.705987	855.419101	-45.091513	12.606882	33.903026	27.281712	45.000000	-45.000000	-2249.542849	-4246.925191	22.242071	-165.233356	-1.820578	158.798723	15.903617	14.692702	-5.961043	-45.000000	-40.143846	45.000000	-45.000000	-1333.761439	798.642876	25.853507	28.432489	1790.504081	401.923728	13.391614	-22.480403	
9.0700	31.208396	24.996920	34.321043	-86.691392	855.060275	-45.187218	12.583209	33.887245	27.221768	45.000000	-45.000000	-2249.492899	-4246.954144	22.249040	-165.387942	-1.836541	159.040143	16.033559	14.642694	-5.978561	-45.000000	-40.074318	45.000000	-45.000000	-1333.752769	798.607673	25.844495	28.376950	1790.582979	402.365630	13.239253	-22.636660	
9.0800	31.194805	25.052539	34.334450	-86.661388	854.653443	-45.292368	12.569310	33.887387	27.173914	45.000000	-45.000000	-2249.459203	-4246.992128	22.259955	-165.518319	-1.841465	159.291391	16.132586	14.603801	-6.005062	-45.000000	-40.031469	45.000000	-45.000000	-1333.733667	798.557400	25.840532	28.339092	1790.663040	402.781363	13.133283	-22.779187	
